<svg width="1280" height="720" xmlns="http://www.w3.org/2000/svg" xmlns:xlink="http://www.w3.org/1999/xlink" overflow="hidden"><defs><clipPath id="clip0">
<rect x="0" y="0" width="1280" height="720"/></clipPath></defs><g clip-path="url(#clip0)">
<rect x="0" y="0" width="1280" height="720" fill="#FFFFFF"/>
<rect id="5533" x="119.5" y="85.5001" width="441" height="207" stroke="#000000" stroke-width="1.33333" stroke-miterlimit="8" fill="none"/>
<text font-family="Yu Gothic,Yu Gothic_MSFontService,sans-serif" font-weight="400" font-size="24" transform="translate(312.627 196)">5533</text>
<rect id="5534" x="119.5" y="396.5" width="441" height="207" stroke="#000000" stroke-width="1.33333" stroke-miterlimit="8" fill="none"/>
<text font-family="Yu Gothic,Yu Gothic_MSFontService,sans-serif" font-weight="400" font-size="24" transform="translate(312.627 507)">5534</text>
<path d="M119.5 292.5 119.5 396.753" stroke="#000000" stroke-width="0.666667" stroke-miterlimit="8" fill="none" fill-rule="evenodd"/>
<path d="M621.5 85.5001 621.5 213.501" stroke="#000000" stroke-width="0.666667" stroke-miterlimit="8" fill="none" fill-rule="evenodd"/>
<path d="M561.5 117.5 685.735 117.5" stroke="#000000" stroke-width="0.666667" stroke-miterlimit="8" fill="none" fill-rule="evenodd"/>
<path d="M562.5 133.5 686.735 133.5" stroke="#000000" stroke-width="0.666667" stroke-miterlimit="8" fill="none" fill-rule="evenodd"/>
<path d="M562.5 149.5 686.735 149.5" stroke="#000000" stroke-width="0.666667" stroke-miterlimit="8" fill="none" fill-rule="evenodd"/>
<path d="M560.5 166.5 684.735 166.5" stroke="#000000" stroke-width="0.666667" stroke-miterlimit="8" fill="none" fill-rule="evenodd"/>
<path d="M561.5 181.5 685.735 181.5" stroke="#000000" stroke-width="0.666667" stroke-miterlimit="8" fill="none" fill-rule="evenodd"/>
<path d="M562.5 197.5 686.735 197.5" stroke="#000000" stroke-width="0.666667" stroke-miterlimit="8" fill="none" fill-rule="evenodd"/>
<path d="M562.5 213.5 686.735 213.5" stroke="#000000" stroke-width="0.666667" stroke-miterlimit="8" fill="none" fill-rule="evenodd"/>
<path d="M559.5 85.5001 686.369 85.5002" stroke="#000000" stroke-width="0.666667" stroke-miterlimit="8" fill="none" fill-rule="evenodd"/>
<path d="M686.5 85.5001 686.5 515.195" stroke="#000000" stroke-width="0.666667" stroke-miterlimit="8" fill="none" fill-rule="evenodd"/>
<path d="M559.5 514.5 686.369 514.5" stroke="#000000" stroke-width="0.666667" stroke-miterlimit="8" fill="none" fill-rule="evenodd"/></g></svg>