<svg width="1280" height="720" xmlns="http://www.w3.org/2000/svg" xmlns:xlink="http://www.w3.org/1999/xlink" overflow="hidden"><defs><clipPath id="clip0">
<rect x="0" y="0" width="1280" height="720"/></clipPath></defs><g clip-path="url(#clip0)"><rect x="0" y="0" width="1280" height="720" fill="#FFFFFF"/>
<rect id="6325" x="136.5" y="81.5001" width="147" height="120" stroke="#000000" stroke-width="1.33333" stroke-miterlimit="8" fill="none"/>
<text font-family="Yu Gothic,Yu Gothic_MSFontService,sans-serif" font-weight="400" font-size="24" transform="translate(183.169 148)">6325</text>
<rect id="6317" x="284.5" y="81.5001" width="147" height="120" stroke="#000000" stroke-width="1.33333" stroke-miterlimit="8" fill="none"/>
<text font-family="Yu Gothic,Yu Gothic_MSFontService,sans-serif" font-weight="400" font-size="24" transform="translate(330.369 148)">6317</text>
<rect id="6309" x="431.5" y="81.5001" width="147" height="120" stroke="#000000" stroke-width="1.33333" stroke-miterlimit="8" fill="none"/>
<text font-family="Yu Gothic,Yu Gothic_MSFontService,sans-serif" font-weight="400" font-size="24" transform="translate(477.569 148)">6309</text>
<rect id="6301" x="578.5" y="81.5001" width="147" height="120" stroke="#000000" stroke-width="1.33333" stroke-miterlimit="8" fill="none"/>
<text font-family="Yu Gothic,Yu Gothic_MSFontService,sans-serif" font-weight="400" font-size="24" transform="translate(624.581 148)">6301</text>
<rect id="6326" x="136.5" y="276.5" width="147" height="120" stroke="#000000" stroke-width="1.33333" stroke-miterlimit="8" fill="none"/>
<text font-family="Yu Gothic,Yu Gothic_MSFontService,sans-serif" font-weight="400" font-size="24" transform="translate(183.169 343)">6326</text>
<rect id="6318" x="283.5" y="276.5" width="147" height="120" stroke="#000000" stroke-width="1.33333" stroke-miterlimit="8" fill="none"/>
<text font-family="Yu Gothic,Yu Gothic_MSFontService,sans-serif" font-weight="400" font-size="24" transform="translate(330.181 343)">6318</text>
<rect id="6310" x="430.5" y="276.5" width="147" height="120" stroke="#000000" stroke-width="1.33333" stroke-miterlimit="8" fill="none"/>
<text font-family="Yu Gothic,Yu Gothic_MSFontService,sans-serif" font-weight="400" font-size="24" transform="translate(477.193 343)">6310</text>
<rect id="6302" x="578.5" y="276.5" width="147" height="120" stroke="#000000" stroke-width="1.33333" stroke-miterlimit="8" fill="none"/>
<text font-family="Yu Gothic,Yu Gothic_MSFontService,sans-serif" font-weight="400" font-size="24" transform="translate(624.581 343)">6302</text>
<path d="M136.5 201.5 136.5 276.464" stroke="#000000" stroke-width="1.33333" stroke-miterlimit="8" fill="none" fill-rule="evenodd"/>
<path d="M0 0 1.12987 316.496" stroke="#000000" stroke-width="1.33333" stroke-miterlimit="8" fill="none" fill-rule="evenodd" transform="matrix(-1 0 0 1 872.63 80.5001)"/>
<path d="M872.501 141.5 744.5 141.5" stroke="#000000" stroke-width="0.666667" stroke-miterlimit="8" fill="none" fill-rule="evenodd"/>
<path d="M840.5 81.5 840.5 205.735" stroke="#000000" stroke-width="0.666667" stroke-miterlimit="8" fill="none" fill-rule="evenodd"/>
<path d="M824.5 82.5 824.5 206.735" stroke="#000000" stroke-width="0.666667" stroke-miterlimit="8" fill="none" fill-rule="evenodd"/>
<path d="M808.5 82.5 808.5 206.735" stroke="#000000" stroke-width="0.666667" stroke-miterlimit="8" fill="none" fill-rule="evenodd"/>
<path d="M791.5 80.5 791.5 204.735" stroke="#000000" stroke-width="0.666667" stroke-miterlimit="8" fill="none" fill-rule="evenodd"/>
<path d="M776.5 81.5 776.5 205.735" stroke="#000000" stroke-width="0.666667" stroke-miterlimit="8" fill="none" fill-rule="evenodd"/>
<path d="M760.5 82.5 760.5 206.735" stroke="#000000" stroke-width="0.666667" stroke-miterlimit="8" fill="none" fill-rule="evenodd"/>
<path d="M744.5 82.5 744.5 206.735" stroke="#000000" stroke-width="0.666667" stroke-miterlimit="8" fill="none" fill-rule="evenodd"/>
<path d="M725.5 81.5001 872.135 81.5002" stroke="#000000" stroke-width="1.33333" stroke-miterlimit="8" fill="none" fill-rule="evenodd"/>
<path d="M726.5 396.5 873.135 396.5" stroke="#000000" stroke-width="1.33333" stroke-miterlimit="8" fill="none" fill-rule="evenodd"/>
<path d="M744.5 206.5 872.359 206.5" stroke="#000000" stroke-width="1.33333" stroke-miterlimit="8" fill="none" fill-rule="evenodd"/>
<rect x="798.5" y="207.5" width="74" height="120" stroke="#000000" stroke-width="1.33333" stroke-miterlimit="8" fill="none"/>
<text font-family="Yu Gothic,Yu Gothic_MSFontService,sans-serif" font-weight="400" font-size="24" transform="translate(819.799 274)">E<tspan font-size="24" x="14.8334" y="0">V</tspan></text>
<rect x="725.5" y="328.5" width="146" height="69" stroke="#000000" stroke-width="1.33333" stroke-miterlimit="8" fill="none"/>
<text font-family="Yu Gothic,Yu Gothic_MSFontService,sans-serif" font-weight="400" font-size="24" transform="translate(778.808 370)">W<tspan font-size="24" x="22.3333" y="0">C</tspan></text></g></svg>