<svg width="1280" height="720" xmlns="http://www.w3.org/2000/svg" xmlns:xlink="http://www.w3.org/1999/xlink" overflow="hidden"><defs><clipPath id="clip0"><rect x="0" y="0" width="1280" height="720"/></clipPath></defs><g clip-path="url(#clip0)">
<rect x="0" y="0" width="1280" height="720" fill="#FFFFFF"/>
<rect id="3405" x="173.5" y="39.5001" width="83" height="207" stroke="#000000" stroke-width="1.33333" stroke-miterlimit="8" fill="none"/><text font-family="Yu Gothic,Yu Gothic_MSFontService,sans-serif" font-weight="400" font-size="24" transform="translate(187.737 141)">3405<tspan font-size="16" x="-2.75333" y="21">実習室</tspan><tspan font-size="16" x="45.2467" y="21">B</tspan></text>
<rect x="909.5" y="295.5" width="198" height="71" stroke="#000000" stroke-width="1.33333" stroke-miterlimit="8" fill="none"/>
<rect id="3400" x="173.5" y="409.5" width="118" height="121" stroke="#000000" stroke-width="1.33333" stroke-miterlimit="8" fill="none"/>
<text font-family="Yu Gothic,Yu Gothic_MSFontService,sans-serif" font-weight="400" font-size="24" transform="translate(205.525 462)">3400<tspan font-size="24" x="-17.08" y="29">実習室</tspan>A</text>
<rect id="3401" x="291.5" y="409.5" width="132" height="121" stroke="#000000" stroke-width="1.33333" stroke-miterlimit="8" fill="none"/>
<text font-family="Yu Gothic,Yu Gothic_MSFontService,sans-serif" font-weight="400" font-size="24" transform="translate(330.492 477)">3401</text><rect x="291.5" y="295.5" width="545" height="71" stroke="#000000" stroke-width="1.33333" stroke-miterlimit="8" fill="none"/>
<text font-family="Yu Gothic,Yu Gothic_MSFontService,sans-serif" font-weight="400" font-size="24" transform="translate(539.559 338)">吹抜</text>
<rect id="3402" x="423.5" y="409.5" width="116" height="121" stroke="#000000" stroke-width="1.33333" stroke-miterlimit="8" fill="none"/>
<text font-family="Yu Gothic,Yu Gothic_MSFontService,sans-serif" font-weight="400" font-size="24" transform="translate(454.651 477)">3402</text>
<rect id="3403" x="539.5" y="409.5" width="284" height="121" stroke="#000000" stroke-width="1.33333" stroke-miterlimit="8" fill="none"/>
<text font-family="Yu Gothic,Yu Gothic_MSFontService,sans-serif" font-weight="400" font-size="24" transform="translate(654.37 462)">3403<tspan font-size="24" x="-92.42" y="29">都心</tspan>IT<tspan font-size="24" x="-22.2533" y="29">センター事務室</tspan></text>
<rect id="3404" x="823.5" y="409.5" width="285" height="121" stroke="#000000" stroke-width="1.33333" stroke-miterlimit="8" fill="none"/>
<text font-family="Yu Gothic,Yu Gothic_MSFontService,sans-serif" font-weight="400" font-size="24" transform="translate(938.697 462)">3304<tspan font-size="24" x="-33.3334" y="29">サーバー室</tspan></text>
<rect id="3408" x="823.5" y="39.5001" width="284" height="207" stroke="#000000" stroke-width="1.33333" stroke-miterlimit="8" fill="none"/>
<text font-family="Yu Gothic,Yu Gothic_MSFontService,sans-serif" font-weight="400" font-size="24" transform="translate(938.372 136)">3408<tspan font-size="24" x="-16.7533" y="29">実習室</tspan>E</text>
<rect x="1108.5" y="366.5" width="72" height="164" stroke="#000000" stroke-width="1.33333" stroke-miterlimit="8" fill="none"/>
<text font-family="Yu Gothic,Yu Gothic_MSFontService,sans-serif" font-weight="400" font-size="24" transform="translate(1131.95 441)">階<tspan font-size="24" x="0" y="29">段</tspan></text>
<rect x="786.5" y="309.5" width="50" height="41" stroke="#000000" stroke-width="1.33333" stroke-miterlimit="8" fill="none"/>
<text font-family="Yu Gothic,Yu Gothic_MSFontService,sans-serif" font-weight="400" font-size="24" transform="translate(795.75 337)">EV</text>
<rect x="85.5001" y="39.5001" width="87" height="207" stroke="#000000" stroke-width="1.33333" stroke-miterlimit="8" fill="none"/>
<text font-family="Yu Gothic,Yu Gothic_MSFontService,sans-serif" font-weight="400" font-size="24" transform="translate(109.485 107)">WC<tspan font-size="24" x="-14" y="29">(</tspan><tspan font-size="24" x="-4.66666" y="29">女性</tspan>)<tspan font-size="24" x="7.33334" y="58">・</tspan><tspan font-size="24" x="-4.66666" y="86">倉庫</tspan></text>
<rect x="83.5001" y="377.5" width="90" height="153" stroke="#000000" stroke-width="1.33333" stroke-miterlimit="8" fill="none"/><text font-family="Yu Gothic,Yu Gothic_MSFontService,sans-serif" font-weight="400" font-size="21" transform="translate(107.023 435)">階段</text>
<rect x="83.5001" y="469.5" width="90" height="61" stroke="#000000" stroke-width="1.33333" stroke-miterlimit="8" fill="none"/>
<text font-family="Yu Gothic,Yu Gothic_MSFontService,sans-serif" font-weight="400" font-size="24" transform="translate(109.023 493)">WC<tspan font-size="24" x="-14" y="29">(</tspan><tspan font-size="24" x="-4.66666" y="29">男</tspan>性)</text>
<rect id="3407" x="540.5" y="40.5001" width="283" height="207" stroke="#000000" stroke-width="1.33333" stroke-miterlimit="8" fill="none"/>
<text font-family="Yu Gothic,Yu Gothic_MSFontService,sans-serif" font-weight="400" font-size="24" transform="translate(654.702 136)">3407<tspan font-size="24" x="-18.2534" y="29">実習室</tspan>D</text>
<rect id="3406" x="256.5" y="39.5001" width="283" height="208" stroke="#000000" stroke-width="1.33333" stroke-miterlimit="8" fill="none"/>
<text font-family="Yu Gothic,Yu Gothic_MSFontService,sans-serif" font-weight="400" font-size="24" transform="translate(370.934 136)">3406<tspan font-size="24" x="-17.5" y="29">実習室</tspan>C</text><path d="M1108.5 246.5 1108.5 295.569" stroke="#000000" stroke-width="1.33333" stroke-miterlimit="8" fill="none" fill-rule="evenodd"/>
<rect x="21.5001" y="246.5" width="107" height="131" stroke="#000000" stroke-width="1.33333" stroke-miterlimit="8" fill="none"/>
<text font-family="Yu Gothic,Yu Gothic_MSFontService,sans-serif" font-weight="400" font-size="24" transform="translate(59.1683 306)">EV<tspan font-size="21" x="-16.8333" y="26">ホール</tspan></text></g></svg>